<svg width="35" height="35" viewBox="0 0 35 35" fill="none" xmlns="http://www.w3.org/2000/svg">
<rect width="35" height="35" fill="#1E1E1E"/>
<g id="Super Admin">
<path d="M-6501 -2784C-6501 -2785.1 -6500.1 -2786 -6499 -2786H23756C23757.1 -2786 23758 -2785.1 23758 -2784V4329C23758 4330.1 23757.1 4331 23756 4331H-6499C-6500.1 4331 -6501 4330.1 -6501 4329V-2784Z" fill="#404040"/>
<path d="M-6499 -2785H23756V-2787H-6499V-2785ZM23757 -2784V4329H23759V-2784H23757ZM23756 4330H-6499V4332H23756V4330ZM-6500 4329V-2784H-6502V4329H-6500ZM-6499 4330C-6499.55 4330 -6500 4329.55 -6500 4329H-6502C-6502 4330.66 -6500.66 4332 -6499 4332V4330ZM23757 4329C23757 4329.55 23756.6 4330 23756 4330V4332C23757.7 4332 23759 4330.66 23759 4329H23757ZM23756 -2785C23756.6 -2785 23757 -2784.55 23757 -2784H23759C23759 -2785.66 23757.7 -2787 23756 -2787V-2785ZM-6499 -2787C-6500.66 -2787 -6502 -2785.66 -6502 -2784H-6500C-6500 -2784.55 -6499.55 -2785 -6499 -2785V-2787Z" fill="white" fill-opacity="0.1"/>
<g id="New Contract 3" clip-path="url(#clip0_0_1)">
<rect width="1920" height="1080" transform="translate(-1681 -959)" fill="#F2F8FF"/>
<rect id="Rectangle 3" x="-1681" y="-959" width="1920" height="1080" fill="#F2F8FF"/>
<g id="Frame 16" clip-path="url(#clip1_0_1)">
<rect id="Rectangle 5" x="-1371" y="-811" width="1582" height="1230" rx="5" fill="white"/>
</g>
<g id="Group 991">
<path id="Rectangle 1978" d="M-175.5 -78C-175.5 -80.4853 -173.485 -82.5 -171 -82.5H206C208.485 -82.5 210.5 -80.4853 210.5 -78V120.5H-175.5V-78Z" fill="white" stroke="#31713F"/>
<g id="Group 990">
<path id="Vector" d="M9.125 17.25L16.0893 23.0536L25.375 11.4464M17.25 33.5C15.116 33.5 13.0029 33.0797 11.0314 32.263C9.05985 31.4464 7.26847 30.2494 5.75951 28.7405C4.25056 27.2315 3.0536 25.4401 2.23696 23.4686C1.42032 21.4971 1 19.384 1 17.25C1 15.116 1.42032 13.0029 2.23696 11.0314C3.0536 9.05985 4.25056 7.26847 5.75951 5.75951C7.26847 4.25056 9.05985 3.0536 11.0314 2.23696C13.0029 1.42032 15.116 1 17.25 1C21.5598 1 25.693 2.71205 28.7405 5.75952C31.7879 8.80698 33.5 12.9402 33.5 17.25C33.5 21.5598 31.7879 25.693 28.7405 28.7405C25.693 31.7879 21.5598 33.5 17.25 33.5Z" stroke="#31713F" stroke-width="2"/>
</g>
</g>
</g>
</g>
<defs>
<clipPath id="clip0_0_1">
<rect width="1920" height="1080" fill="white" transform="translate(-1681 -959)"/>
</clipPath>
<clipPath id="clip1_0_1">
<rect width="1582" height="1013" fill="white" transform="translate(-1371 -892)"/>
</clipPath>
</defs>
</svg>
